# xmcd
#
# Track frame offsets: 
#        150
#        33025
#        57442
#        78117
#        103749
#        134252
#        159571
#        166847
#        179177
#        205305
#        231610
#        284207
#        305315
#
# Disc length: 4538 seconds
#
# Revision: 1
# Processed by: cddbd v1.5.2PL0 Copyright (c) Steve Scherf et al.
# Submitted via: ExactAudioCopy v0.99pb4
#
DISCID=ba11b80d
DTITLE=Jean-Christophe Rufin - L'Abyssin
DYEAR=1997
DGENRE=AudioBook
TTITLE0=B01
TTITLE1=B02
TTITLE2=B03
TTITLE3=B04
TTITLE4=B05
TTITLE5=B06
TTITLE6=B07
TTITLE7=B08
TTITLE8=B09
TTITLE9=B10
TTITLE10=B11
TTITLE11=B12
TTITLE12=B13
EXTD=YEAR: 1997
EXTT0=
EXTT1=
EXTT2=
EXTT3=
EXTT4=
EXTT5=
EXTT6=
EXTT7=
EXTT8=
EXTT9=
EXTT10=
EXTT11=
EXTT12=
PLAYORDER=
